<?xml version="1.0" standalone="no"?>
<!DOCTYPE svg PUBLIC "-//W3C//DTD SVG 20010904//EN"
 "http://www.w3.org/TR/2001/REC-SVG-20010904/DTD/svg10.dtd">
<svg version="1.0" xmlns="http://www.w3.org/2000/svg"
 width="28.000000pt" height="28.000000pt" viewBox="0 0 28.000000 28.000000"
 preserveAspectRatio="xMidYMid meet">

<g transform="translate(0.000000,28.000000) scale(0.100000,-0.100000)"
fill="#000000" stroke="none">
<path d="M50 214 c-11 -25 -20 -48 -20 -50 0 -6 82 -43 96 -44 6 0 21 23 32
51 l21 50 -45 20 c-25 10 -50 19 -55 19 -5 0 -19 -21 -29 -46z"/>
<path d="M178 148 c-16 -5 -28 -14 -28 -18 0 -8 19 -58 26 -68 5 -7 74 19 74
27 0 5 -5 22 -11 40 -12 33 -18 35 -61 19z"/>
<path d="M140 30 c0 -11 7 -20 15 -20 8 0 15 9 15 20 0 11 -7 20 -15 20 -8 0
-15 -9 -15 -20z"/>
</g>
</svg>
